<svg id="Layer_1" xmlns="http://www.w3.org/2000/svg" viewBox="0 0 487.75 517.99"><path d="M449.39,195.04c-6.34,0-11.5-5.16-11.5-11.5V49.87h-133.68c-6.34,0-11.5-5.16-11.5-11.5V12c0-6.34,5.16-11.5,11.5-11.5h171.54c6.34,0,11.5,5.16,11.5,11.5v171.54c0,6.34-5.16,11.5-11.5,11.5h-26.37Z"/><path d="M475.75,1c6.07,0,11,4.93,11,11v171.55c0,6.07-4.93,11-11,11h-26.37c-6.07,0-11-4.93-11-11V49.37h-134.18c-6.07,0-11-4.93-11-11V12c0-6.07,4.93-11,11-11h171.55M475.75,0h-171.55c-6.6,0-12,5.4-12,12v26.37c0,6.6,5.4,12,12,12h133.18v133.18c0,6.6,5.4,12,12,12h26.37c6.6,0,12-5.4,12-12V12c0-6.6-5.4-12-12-12h0Z"/><path d="M12,195.04c-6.34,0-11.5-5.16-11.5-11.5V12C.5,5.66,5.66.5,12,.5h171.55c6.34,0,11.5,5.16,11.5,11.5v26.37c0,6.34-5.16,11.5-11.5,11.5H49.87v133.68c0,6.34-5.16,11.5-11.5,11.5H12Z"/><path d="M183.55,1c6.07,0,11,4.93,11,11v26.37c0,6.07-4.93,11-11,11H49.37v134.18c0,6.07-4.93,11-11,11H12c-6.07,0-11-4.93-11-11V12C1,5.93,5.93,1,12,1h171.55M183.55,0H12C5.4,0,0,5.4,0,12v171.55c0,6.6,5.4,12,12,12h26.37c6.6,0,12-5.4,12-12V50.37h133.18c6.6,0,12-5.4,12-12V12C195.55,5.4,190.15,0,183.55,0h0Z"/><path d="M304.21,517.49c-6.34,0-11.5-5.16-11.5-11.5v-26.37c0-6.34,5.16-11.5,11.5-11.5h133.68v-133.68c0-6.34,5.16-11.5,11.5-11.5h26.37c6.34,0,11.5,5.16,11.5,11.5v171.54c0,6.34-5.16,11.5-11.5,11.5h-171.54Z"/><path d="M475.75,323.45c6.07,0,11,4.93,11,11v171.55c0,6.07-4.93,11-11,11h-171.55c-6.07,0-11-4.93-11-11v-26.37c0-6.07,4.93-11,11-11h134.18v-134.18c0-6.07,4.93-11,11-11h26.37M475.75,322.45h-26.37c-6.6,0-12,5.4-12,12v133.18h-133.18c-6.6,0-12,5.4-12,12v26.37c0,6.6,5.4,12,12,12h171.55c6.6,0,12-5.4,12-12v-171.55c0-6.6-5.4-12-12-12h0Z"/><path d="M12,517.49c-6.34,0-11.5-5.16-11.5-11.5v-171.54c0-6.34,5.16-11.5,11.5-11.5h26.37c6.34,0,11.5,5.16,11.5,11.5v133.68h133.68c6.34,0,11.5,5.16,11.5,11.5v26.37c0,6.34-5.16,11.5-11.5,11.5H12Z"/><path d="M38.37,323.45c6.07,0,11,4.93,11,11v134.18h134.18c6.07,0,11,4.93,11,11v26.37c0,6.07-4.93,11-11,11H12c-6.07,0-11-4.93-11-11v-171.55c0-6.07,4.93-11,11-11h26.37M38.37,322.45H12c-6.6,0-12,5.4-12,12v171.55c0,6.6,5.4,12,12,12h171.55c6.6,0,12-5.4,12-12v-26.37c0-6.6-5.4-12-12-12H50.37v-133.18c0-6.6-5.4-12-12-12h0Z"/></svg>