<svg id="Layer_1" xmlns="http://www.w3.org/2000/svg" viewBox="0 0 202.12 454.55"><rect x=".5" y=".5" width="76.12" height="453.55" rx="21.38" ry="21.38"/><path d="M55.24,1c11.51,0,20.88,9.36,20.88,20.88v410.79c0,11.51-9.36,20.88-20.88,20.88H21.88c-11.51,0-20.88-9.36-20.88-20.88V21.88C1,10.36,10.36,1,21.88,1h33.37M55.24,0H21.88C9.84,0,0,9.84,0,21.88v410.79c0,12.03,9.84,21.88,21.88,21.88h33.37c12.03,0,21.88-9.84,21.88-21.88V21.88c0-12.03-9.84-21.88-21.88-21.88h0Z"/><rect x="125.5" y=".5" width="76.12" height="453.55" rx="21.38" ry="21.38"/><path d="M180.24,1c11.51,0,20.88,9.36,20.88,20.88v410.79c0,11.51-9.36,20.88-20.88,20.88h-33.37c-11.51,0-20.88-9.36-20.88-20.88V21.88c0-11.51,9.36-20.88,20.88-20.88h33.37M180.24,0h-33.37c-12.03,0-21.88,9.84-21.88,21.88v410.79c0,12.03,9.84,21.88,21.88,21.88h33.37c12.03,0,21.88-9.84,21.88-21.88V21.88c0-12.03-9.84-21.88-21.88-21.88h0Z"/></svg>