<svg id="Layer_1" xmlns="http://www.w3.org/2000/svg" viewBox="0 0 326.41 368.37"><path d="M27.91,367.87c-15.12,0-27.41-12.3-27.41-27.41V27.91C.5,12.8,12.8.5,27.91.5c4.79,0,9.38,1.25,13.64,3.71l270.67,156.27c8.57,4.95,13.69,13.81,13.69,23.7s-5.12,18.76-13.69,23.71L41.56,364.16c-4.26,2.46-8.85,3.71-13.64,3.71h0Z"/><path d="M27.91,1c4.7,0,9.21,1.23,13.39,3.64l270.67,156.27c8.41,4.86,13.44,13.56,13.44,23.27s-5.02,18.41-13.44,23.27L41.31,363.72c-4.19,2.42-8.69,3.64-13.39,3.64-14.84,0-26.91-12.07-26.91-26.91V27.91C1,13.07,13.07,1,27.91,1M27.91,0C13.35,0,0,11.64,0,27.91v312.54c0,16.27,13.36,27.91,27.91,27.91,4.64,0,9.4-1.18,13.89-3.78l270.67-156.27c18.58-10.73,18.58-37.55,0-48.28L41.81,3.78c-4.49-2.59-9.25-3.78-13.89-3.78h0Z"/></svg>